<svg  style="fill:#2980b9;" height="30pt" viewBox="0 -29 512 512" width="30pt" xmlns="http://www.w3.org/2000/svg"><path d="m145.53125 52.671875c-51.183594 0-92.828125 41.625-92.828125 92.78125 0 51.164063 41.644531 92.785156 92.828125 92.785156 51.1875 0 92.828125-41.621093 92.828125-92.785156 0-51.15625-41.640625-92.78125-92.828125-92.78125zm0 155.566406c-34.644531 0-62.828125-28.164062-62.828125-62.785156 0-34.617187 28.183594-62.78125 62.828125-62.78125s62.828125 28.164063 62.828125 62.78125c0 34.621094-28.183594 62.785156-62.828125 62.785156zm0 0"/><path d="m170.167969 120.402344c-8.28125 0-15 6.714844-15 15v20.105468c0 8.285157 6.71875 15 15 15 8.285156 0 15-6.714843 15-15v-20.105468c0-8.285156-6.714844-15-15-15zm0 0"/><path d="m120.894531 120.402344c-8.28125 0-15 6.714844-15 15v20.105468c0 8.285157 6.71875 15 15 15 8.285157 0 15-6.714843 15-15v-20.105468c0-8.285156-6.714843-15-15-15zm0 0"/><path d="m497 70.039062h-35.027344v-55.039062c0-8.285156-6.714844-15-15-15s-15 6.714844-15 15v55.039062h-19.273437v-55.039062c0-8.285156-6.714844-15-15-15-8.285157 0-15 6.714844-15 15v55.039062h-35.027344c-8.28125 0-15 6.714844-15 15 0 8.28125 6.71875 15 15 15h4.984375v62.949219c0 25.554688 20.789062 46.34375 46.347656 46.34375h8.332032v182.285157c0 17.304687-14.089844 31.382812-31.410157 31.382812-17.316406 0-31.40625-14.078125-31.40625-31.382812v-23.367188c0-32.71875-26.632812-59.339844-59.371093-59.339844-32.734376 0-59.367188 26.621094-59.367188 59.339844v22.152344c0 17.972656-14.636719 32.597656-32.625 32.597656-8.714844 0-16.910156-3.390625-23.070312-9.546875-6.160157-6.15625-9.554688-14.339844-9.554688-23.042969v-99.5h75.984375c30.082031 0 54.550781-24.472656 54.550781-54.550781v-181.808594c0-30.078125-24.472656-54.550781-54.550781-54.550781h-181.964844c-30.078125 0-54.550781 24.472656-54.550781 54.550781v181.808594c0 30.078125 24.472656 54.550781 54.550781 54.550781h75.980469v99.5c0 16.722656 6.515625 32.441406 18.347656 44.265625 11.824219 11.816407 27.546875 18.324219 44.269532 18.324219h.007812c34.53125-.003906 62.621094-28.085938 62.621094-62.597656v-22.152344c0-16.179688 13.175781-29.339844 29.371094-29.339844 16.195312 0 29.367187 13.160156 29.367187 29.339844v23.367188c0 33.847656 27.546875 61.382812 61.410156 61.382812 33.859375 0 61.410157-27.535156 61.410157-61.382812v-182.285157h8.335937c25.554687 0 46.34375-20.789062 46.34375-46.34375v-62.949219h4.984375c8.285156 0 15-6.71875 15-15 0-8.285156-6.714844-15-15-15zm-467 166.320313v-181.808594c0-13.539062 11.011719-24.550781 24.550781-24.550781h181.964844c13.535156 0 24.550781 11.011719 24.550781 24.550781v181.808594c0 13.539063-11.015625 24.550781-24.550781 24.550781h-181.964844c-13.539062 0-24.550781-11.011718-24.550781-24.550781zm432.015625-73.371094c0 9.011719-7.332031 16.34375-16.34375 16.34375h-46.671875c-9.011719 0-16.34375-7.332031-16.34375-16.34375v-62.949219h79.359375zm0 0"/></svg>